<svg xmlns="http://www.w3.org/2000/svg" width="574" height="132" viewBox="0 0 574 132">
  <defs>
    <style>
      .cls-1 {
        fill: #a800ff;
        fill-rule: evenodd;
      }
    </style>
  </defs>
  <path id="Color_Fill_1" data-name="Color Fill 1" class="cls-1" d="M385,8l7,1c12.07,6.428-1.56,24.117-3,34,10.665-4.861,18.9-9.432,24-20q-1-3-2-6h-3l-5,6V18l1-3c2.95-4.316,9.538-9.542,17-6l7,6c0.121,20.424-13.314,27.61-27,34,1.632,2.557,1.232,2.424,4,4,6.484,2.455,8.549-1.69,12-5v7c-12.466,20.149-10.895,34,5,51,6.361,0.9,9.154,1.893,12-3,0.865-3.154.3-3.177-1-6h4l6,6c0.47,10.764-1.95,15.876-9,19-15.546,9.409-31.876-7.242-35-18-4.972,3.877-9.219,5.585-14,0,5.941-.767,6.562-2.249,10-5,1.9-15.363-.369-34.9-9-43v2c-6.267,13.259,4.308,23.432,2,34-1.31,5.678-6.334,8.236-11,4,4.419-.774,3.714-0.6,6-3-1.321-3.827,0-2.08-3-4-9.785-2.892-15.979,8.749-27,5-5.236-2.437-5.388-5.818-4-12,3.636-2.73,4.559-4.653,10-6-2.145,3.414-2.9,3.5-2,8h1c10.779-3.985,11.8-14.478,15-26-8.156,6.454-14.471,10.68-28,7-12.568-16.4-4.266-40.435,15-45,11.626-2.755,18.279,3.094,27-1q0.5-3,1-6C384.463,9.609,384.693,10.712,385,8ZM75,11c9.866-.548,15,0.626,18,7V29c-13.044,17.193-29.665,2.166-39,9-7.322,6.445-13.2,29.355-1,35,6.788,4.18,13.393.485,18-3l1-7-4-3H65c-4.329,1.779-4.238,1.544-5,7l-3-2V56c6.022-8.66,15.175-11.635,28-8C107.159,78.324,66.007,87.9,48,98c-1.012,5.7-.468,7.05,2,11l-9-1-5-7c2.632-7.117,4.715-7.9,10-12-11.5-4.48-14.66-15.23-14-32-4.562,2.584-9.544,3.391-16,2C-0.795,47.182,12.195,24.416,28,21l25,4C58.807,17.791,66.789,15.958,75,11Zm251,5,8,3v1l-9,27h-2c-1.228-10.185-3.527-22.529,1-30ZM73,22L62,28l1,2H76l2-3,1-3Zm287,5c-6.745,5.175-12.272,9.581-10,21l2,3,7,1,5-3c1.112-5.78,1.738-7.131-4-9l1-2c5.089-1.015,7.785-.417,12,1V35l-6-8h-7ZM184,55h-5q0.5-3.5,1-7l6-1c0.341-13.322,5.056-15.449,15-19l2,2-4,18,10,1q-1,3-2,6l-10,1c-0.954,6.811-4.9,18.958,1,23,4.691,1.751,9.373-.837,13-3-0.222-22.606,22.9-37.643,42-25,6.112,17.982-.694,48.362-29,41-6.875-1.788-9.108-8.937-14-7-6.246,2.788-14.411,10-24,6-4.4-2.142-4.924-3.5-5-10-6.834,4.156-17.083,14.923-29,10l-4-2c-2.239-11.581,1.215-22.493,2-34h-5q0.5-3.5,1-7l6-1c0.341-13.322,5.056-15.449,15-19l2,2-4,18,10,1q-1,3-2,6l-10,1c-0.954,6.811-4.9,18.958,1,23,7.256,2.617,13.575-3.543,18-7Q183,63.5,184,55Zm346,0h-5q0.5-3.5,1-7l6-1c0.341-13.322,5.056-15.449,15-19l2,2-4,18,10,1q-1,3-2,6l-10,1c-0.954,6.811-4.9,18.958,1,23,9.77,3.192,15.393-7.76,22-6v1c-6.169,6.894-19.073,23.245-34,17l-4-2C525.761,77.419,529.215,66.507,530,55ZM33,31c-4.727,2.224-16.222,9.048-7,15l5,1,2-9c4.33,3.125,2.645,4.3,7,3l5-8V32Zm84,15c9.9-.318,13.6,1.508,19,5,9.388,26.157-13.066,53.576-39,35C89.507,63.88,101.446,54.083,117,46ZM277,92l-10-2-4-5q2-12.5,4-25l-1-1c-4.683,1.086-2.655,2.5-6-1l13-12,5,2q0.5,4,1,8c7.3-4.037,12.015-8.158,23-9l7,6q-1,13-2,26h4l10-8,2,2c-3.539,11.258-18.679,23.9-32,16q0.5-14,1-28h-4C279.656,68.81,276.542,74.75,277,92Zm219-1c-8.836-.255-11.924-3-14-10-5.528,4.429-14.369,14.4-25,10-3.63-1.962-2.922-2.724-5-6-4.931,3.363-13.538,9.633-22,6-3.655-1.65-4.31-2.389-6-6-8.124-26.669,20.2-43.3,44-37,3.856,7.449-4,17.327,0,28,4.737,5.628,10.6-.562,15-4q1-6.5,2-13c-6.748.658-4.173,1.7-9-1l3-4,11-8,3,1c3.328,2.294,3.691,3.531,4,9,5.371-4.74,6.278-9.077,16-10l3,2q1,5,2,10c4.455-.747,4.2-1.25,7-3v4a36.007,36.007,0,0,1-10,15l-5-1c-3.338-2.473-4.012-6.246-5-11l-4,1C498.2,71.513,495.907,77.924,496,91ZM119,56c-6.309,5.648-11.337,11.461-9,23,9.6,10.507,17.646-10,15-20C122.716,56.567,123.4,56.823,119,56Zm117,0c-6.309,5.648-11.337,11.461-9,23,9.6,10.507,17.646-10,15-20C239.716,56.567,240.4,56.823,236,56Zm215,1-7,4c-2.684,5.719-7.952,12.054-2,18,7.746-2.6,12.53-9.1,13-19Z"/>
</svg>
